<!-- A sprite that contains all SVG files for lekoarts.de -->
<svg xmlns="http://www.w3.org/2000/svg">
  <defs>
    <symbol id="cli" viewBox="0 0 50 50" fill="none" xmlns="http://www.w3.org/2000/svg"><rect width="50" height="50" rx="6" fill="#EEFEEB"/><path fill="#7AD28D" d="M9 10h30v23H9z"/><path d="M40.042 6H9.958C7.772 6 6 7.763 6 9.937v30.126C6 42.237 7.772 44 9.958 44h30.084C42.228 44 44 42.237 44 40.063V9.937C44 7.763 42.228 6 40.042 6zm-18.65 14.136l-.068.067-.078.056c-.437.313-.937.677-1.526 1.115-.645.478-1.21.9-1.73 1.288-.602.448-1.182.878-1.725 1.28-.549.404-1.068.782-1.542 1.122l-.093.066-.103.048a2.83 2.83 0 01-1.18.271c-.615 0-1.163-.211-1.584-.612a2.116 2.116 0 01-.668-1.573c0-.546.179-1.064.53-1.54l.105-.142.14-.105c.364-.271.794-.589 1.278-.942.49-.36.977-.721 1.446-1.075a130.75 130.75 0 011.475-1.097l.02-.015c-.459-.35-.94-.722-1.429-1.105-.503-.393-.996-.774-1.464-1.133a45.575 45.575 0 01-1.204-.947l-.092-.075-.075-.091c-.412-.504-.62-1.056-.62-1.642 0-.604.223-1.146.647-1.568a2.224 2.224 0 011.604-.644c.313 0 .648.07 1.026.214l.097.037.09.053c.126.076.304.203.759.578.305.251.681.546 1.121.878.457.346.947.727 1.456 1.131.494.394.968.762 1.41 1.095.463.352.861.659 1.183.914l.611.487c.8.628.967 1.366.967 1.874 0 .434-.135 1.086-.784 1.732zm15.242 9.622c-.343.375-.817.639-1.41.787l-.142.035H25.057l-.054-.005c-.898-.081-1.414-.485-1.689-.81-.37-.438-.564-.95-.564-1.479 0-.576.222-1.112.643-1.55.414-.43.985-.678 1.698-.74l.05-.004h10.03l.149.04c.61.158 1.084.46 1.411.894.322.425.484.883.484 1.36a2.16 2.16 0 01-.581 1.472z" fill="#042024"/></symbol>
    <symbol id="javascript" viewBox="0 0 50 50" fill="none" xmlns="http://www.w3.org/2000/svg"><rect width="50" height="50" rx="6" fill="#FBF7E7"/><path d="M44 6H6v38h38V6z" fill="#F7DF1E"/><path d="M31.526 35.688c.766 1.25 1.762 2.168 3.523 2.168 1.48 0 2.425-.74 2.425-1.761 0-1.225-.971-1.658-2.6-2.37l-.893-.384c-2.577-1.098-4.288-2.473-4.288-5.38 0-2.678 2.04-4.717 5.23-4.717 2.27 0 3.902.79 5.078 2.86l-2.78 1.785c-.613-1.098-1.273-1.53-2.299-1.53-1.046 0-1.709.663-1.709 1.53 0 1.07.664 1.505 2.196 2.168l.893.382c3.034 1.302 4.747 2.628 4.747 5.61 0 3.215-2.526 4.976-5.918 4.976-3.316 0-5.458-1.58-6.507-3.651l2.902-1.686zm-12.614.31c.561.994 1.071 1.836 2.298 1.836 1.173 0 1.913-.46 1.913-2.244V23.448h3.571v12.19c0 3.698-2.168 5.38-5.332 5.38-2.859 0-4.515-1.48-5.357-3.261l2.907-1.76z" fill="#000"/></symbol>
    <symbol id="mdx" viewBox="0 0 50 50" fill="none" xmlns="http://www.w3.org/2000/svg"><rect width="50" height="50" rx="6" fill="#FAF9FB"/><path d="M26.622 18.361v8.633l3.171-3.17 1.6 1.6-5.86 5.862-5.936-5.936 1.6-1.6 3.161 3.16v-8.549h2.264zM8.264 30.846V24.16l4.093 4.094 4.125-4.124v6.649h2.263V18.665l-6.388 6.388L6 18.695v12.151h2.264z" fill="#000"/><path d="M42.4 18l1.6 1.6-4.794 4.795 4.647 4.647-1.601 1.601-4.647-4.647-4.648 4.647-1.6-1.6 4.647-4.648-4.795-4.794L32.81 18l4.796 4.794L42.4 18z" fill="#F9AC00"/></symbol>
    <symbol id="python" viewBox="0 0 50 50" fill="none" xmlns="http://www.w3.org/2000/svg"><rect width="50" height="50" rx="6" fill="#fff"/><path d="M24.569 6c-1.55.008-3.03.14-4.332.37-3.837.678-4.533 2.096-4.533 4.712v3.456h9.065v1.151H12.302c-2.635 0-4.942 1.584-5.664 4.596-.832 3.454-.87 5.608 0 9.214.645 2.684 2.184 4.596 4.818 4.596h3.117v-4.142c0-2.992 2.59-5.631 5.664-5.631h9.055c2.52 0 4.532-2.076 4.532-4.607v-8.633c0-2.456-2.072-4.302-4.532-4.712A28.276 28.276 0 0024.569 6zm-4.903 2.78c.936 0 1.701.776 1.701 1.732 0 .952-.765 1.722-1.7 1.722-.94 0-1.702-.77-1.702-1.722 0-.956.761-1.733 1.701-1.733z" fill="#306998"/><path d="M34.955 15.69v4.025c0 3.121-2.646 5.748-5.663 5.748h-9.055c-2.48 0-4.533 2.123-4.533 4.607v8.632c0 2.457 2.136 3.902 4.533 4.607 2.87.844 5.621.996 9.055 0 2.282-.661 4.532-1.99 4.532-4.607v-3.455H24.77v-1.152h13.587c2.635 0 3.617-1.837 4.533-4.596.947-2.84.906-5.57 0-9.213-.651-2.623-1.895-4.597-4.533-4.597h-3.402zm-5.093 21.86c.94 0 1.701.77 1.701 1.723 0 .955-.761 1.732-1.7 1.732-.937 0-1.702-.777-1.702-1.732 0-.953.765-1.723 1.701-1.723z" fill="#FFD43B"/></symbol>
    <symbol id="react" viewBox="0 0 50 50" fill="none" xmlns="http://www.w3.org/2000/svg"><rect width="50" height="50" rx="6" fill="#ECFBFF"/><path fill-rule="evenodd" clip-rule="evenodd" d="M36.014 18.555c4.833 1.48 7.986 3.87 7.986 6.39 0 2.513-3.137 4.901-7.94 6.382 1.124 4.917.636 8.833-1.54 10.09-.512.294-1.1.434-1.751.434-2.13 0-4.919-1.505-7.738-4.126-2.82 2.637-5.608 4.157-7.738 4.157-.65 0-1.24-.14-1.743-.434-2.184-1.257-2.68-5.18-1.564-10.113C9.152 29.854 6 27.465 6 24.945c0-2.513 3.137-4.894 7.955-6.383-1.123-4.916-.635-8.833 1.541-10.089.511-.295 1.1-.434 1.75-.434V8.03c2.13 0 4.92 1.505 7.739 4.126C27.803 9.52 30.591 8 32.721 8v.008c.64 0 1.226.14 1.728.434 2.184 1.256 2.68 5.18 1.564 10.113zm-3.3-8.826c-1.61.005-3.977 1.292-6.498 3.638a37.815 37.815 0 013.222 3.877c1.743.186 3.4.473 4.919.845.17-.783.31-1.55.395-2.28.356-2.962-.101-5.265-1.154-5.87-.24-.132-.527-.202-.883-.202V9.73zm-8.961 3.645C21.228 11.04 18.85 9.76 17.247 9.76v.008c-.357 0-.659.062-.891.202-1.046.612-1.495 2.916-1.131 5.878.093.721.225 1.474.403 2.25a36.126 36.126 0 014.926-.854 36.62 36.62 0 013.199-3.87zm9.117 9.461a34.94 34.94 0 001.045-3.063 34.915 34.915 0 00-3.175-.612c.379.589.759 1.194 1.115 1.814.364.62.697 1.241 1.015 1.861zM28.5 30.995a41.294 41.294 0 003.47-6.057 40.458 40.458 0 00-1.611-3.086 42.749 42.749 0 00-1.875-2.947 40.26 40.26 0 00-6.986.008 41.294 41.294 0 00-3.47 6.056 40.458 40.458 0 001.611 3.087 42.749 42.749 0 001.875 2.947 40.26 40.26 0 006.986-.008zm5.437-.884a33.23 33.23 0 00-1.069-3.087c-.317.62-.65 1.249-1.006 1.87-.357.627-.736 1.24-1.116 1.837a34.717 34.717 0 003.191-.62zm-11.076 2.706a31.964 31.964 0 002.154 2.482 30.252 30.252 0 002.13-2.482c-.705.04-1.426.055-2.154.055-.72 0-1.433-.024-2.13-.055zm-6.785-2.698c1.015.248 2.076.45 3.176.612-.38-.59-.752-1.194-1.116-1.814-.364-.62-.697-1.241-1.014-1.862a34.94 34.94 0 00-1.046 3.064zM27.13 17.074a31.963 31.963 0 00-2.153-2.482 30.253 30.253 0 00-2.13 2.481A39.285 39.285 0 0125 17.02c.72 0 1.433.023 2.13.055zm-9 3.924c.356-.629.736-1.241 1.115-1.838a37.56 37.56 0 00-3.191.612c.294 1.008.65 2.048 1.069 3.087.317-.62.65-1.241 1.007-1.861zM7.72 24.945c0 1.217 1.773 2.753 4.515 3.924.674.287 1.402.55 2.169.791a36.761 36.761 0 011.72-4.7 37.28 37.28 0 01-1.743-4.722c-.752.24-1.48.496-2.146.783-2.742 1.163-4.515 2.706-4.515 3.924zm7.528 9.135c-.356 2.963.101 5.266 1.154 5.871.233.132.527.202.876.21 1.61 0 3.98-1.288 6.506-3.638a37.815 37.815 0 01-3.222-3.877 37.48 37.48 0 01-4.919-.846c-.17.784-.31 1.551-.395 2.28zm18.396 5.84c1.046-.613 1.495-2.916 1.131-5.878a21.75 21.75 0 00-.403-2.257 36.14 36.14 0 01-4.926.853 36.62 36.62 0 01-3.199 3.87c2.525 2.334 4.903 3.614 6.506 3.614.357 0 .659-.062.891-.202zm1.968-10.268c.75-.24 1.479-.496 2.145-.783 2.742-1.163 4.516-2.707 4.524-3.924 0-1.218-1.774-2.753-4.516-3.924-.682-.287-1.41-.55-2.177-.791a36.762 36.762 0 01-1.72 4.7 37.266 37.266 0 011.743 4.722zm-7.08-4.707a3.542 3.542 0 01-3.54 3.544 3.542 3.542 0 01-3.54-3.544 3.542 3.542 0 013.54-3.544 3.542 3.542 0 013.54 3.544z" fill="#61DAFB"/></symbol>
    <symbol id="typescript" viewBox="0 0 50 50" fill="none" xmlns="http://www.w3.org/2000/svg"><rect width="50" height="50" rx="6" fill="#F3FAFF"/><path fill-rule="evenodd" clip-rule="evenodd" d="M9.71 6h30.58A3.71 3.71 0 0144 9.71v30.58A3.71 3.71 0 0140.29 44H9.71A3.71 3.71 0 016 40.29V9.71A3.71 3.71 0 019.71 6zm19.813 33.954v-3.715a7.142 7.142 0 004.588 1.695c.472 0 .885-.043 1.237-.128.352-.085.647-.203.883-.354.236-.151.412-.33.528-.534.116-.205.175-.428.175-.668 0-.325-.093-.615-.28-.87a3 3 0 00-.76-.709 7.954 7.954 0 00-1.144-.627 39.308 39.308 0 00-1.429-.615c-1.3-.542-2.27-1.204-2.91-1.986-.638-.782-.958-1.726-.958-2.833 0-.867.174-1.612.523-2.235a4.44 4.44 0 011.423-1.538 6.384 6.384 0 012.085-.889 10.72 10.72 0 012.509-.284c.867 0 1.636.052 2.305.157.67.104 1.288.265 1.853.482v3.471a5.6 5.6 0 00-.912-.51 7.23 7.23 0 00-1.016-.366 7.775 7.775 0 00-2.021-.285c-.426 0-.813.04-1.162.122a2.983 2.983 0 00-.883.343c-.24.147-.425.323-.557.528a1.251 1.251 0 00-.198.69c0 .28.074.529.221.75.147.22.356.43.627.627s.6.39.988.58c.387.19.824.385 1.312.587.666.278 1.264.574 1.795.888.53.313.985.667 1.365 1.062s.67.846.87 1.353c.202.507.303 1.097.303 1.77 0 .93-.176 1.71-.529 2.34a4.29 4.29 0 01-1.434 1.533c-.604.39-1.307.671-2.108.841-.802.17-1.648.256-2.538.256-.914 0-1.783-.078-2.608-.232-.825-.155-1.54-.387-2.143-.697zm-1.48-12.87h-4.766V40.66H19.5V27.084h-4.743v-3.049h13.285v3.05z" fill="#3178C6"/></symbol>
    <symbol id="pause" viewBox="0 0 24 24" fill="currentColor"><path fill-rule="evenodd" d="M6.75 5.25a.75.75 0 01.75-.75H9a.75.75 0 01.75.75v13.5a.75.75 0 01-.75.75H7.5a.75.75 0 01-.75-.75V5.25zm7.5 0A.75.75 0 0115 4.5h1.5a.75.75 0 01.75.75v13.5a.75.75 0 01-.75.75H15a.75.75 0 01-.75-.75V5.25z" clip-rule="evenodd" 
    /></symbol>
    <symbol id="play" viewBox="0 0 24 24" fill="currentColor"><path fill-rule="evenodd" d="M4.5 5.653c0-1.426 1.529-2.33 2.779-1.643l11.54 6.348c1.295.712 1.295 2.573 0 3.285L7.28 19.991c-1.25.687-2.779-.217-2.779-1.643V5.653z" clip-rule="evenodd" 
    /></symbol>
    <symbol id="close" viewBox="0 0 20 20" fill="currentColor"><path d="M6.28 5.22a.75.75 0 00-1.06 1.06L8.94 10l-3.72 3.72a.75.75 0 101.06 1.06L10 11.06l3.72 3.72a.75.75 0 101.06-1.06L11.06 10l3.72-3.72a.75.75 0 00-1.06-1.06L10 8.94 6.28 5.22z" 
    /></symbol>
    <symbol id="check" viewBox="0 0 20 20" fill="currentColor"><path fill-rule="evenodd" d="M16.403 12.652a3 3 0 000-5.304 3 3 0 00-3.75-3.751 3 3 0 00-5.305 0 3 3 0 00-3.751 3.75 3 3 0 000 5.305 3 3 0 003.75 3.751 3 3 0 005.305 0 3 3 0 003.751-3.75zm-2.546-4.46a.75.75 0 00-1.214-.883l-3.483 4.79-1.88-1.88a.75.75 0 10-1.06 1.061l2.5 2.5a.75.75 0 001.137-.089l4-5.5z" clip-rule="evenodd" 
    /></symbol>
    <symbol id="info" viewBox="0 0 20 20" fill="currentColor"><path fill-rule="evenodd" d="M19 10.5a8.5 8.5 0 11-17 0 8.5 8.5 0 0117 0zM8.25 9.75A.75.75 0 019 9h.253a1.75 1.75 0 011.709 2.13l-.46 2.066a.25.25 0 00.245.304H11a.75.75 0 010 1.5h-.253a1.75 1.75 0 01-1.709-2.13l.46-2.066a.25.25 0 00-.245-.304H9a.75.75 0 01-.75-.75zM10 7a1 1 0 100-2 1 1 0 000 2z" clip-rule="evenodd" /></symbol>
    <symbol id="warning" viewBox="0 0 20 20" fill="currentColor"><path fill-rule="evenodd" d="M8.485 2.495c.673-1.167 2.357-1.167 3.03 0l6.28 10.875c.673 1.167-.17 2.625-1.516 2.625H3.72c-1.347 0-2.189-1.458-1.515-2.625L8.485 2.495zM10 5a.75.75 0 01.75.75v3.5a.75.75 0 01-1.5 0v-3.5A.75.75 0 0110 5zm0 9a1 1 0 100-2 1 1 0 000 2z" clip-rule="evenodd" 
    /></symbol>
    <symbol id="lightbulb" viewBox="0 0 24 24" fill="currentColor"><path d="M12 .75a8.25 8.25 0 00-4.135 15.39c.686.398 1.115 1.008 1.134 1.623a.75.75 0 00.577.706c.352.083.71.148 1.074.195.323.041.6-.218.6-.544v-4.661a6.714 6.714 0 01-.937-.171.75.75 0 11.374-1.453 5.261 5.261 0 002.626 0 .75.75 0 11.374 1.452 6.712 6.712 0 01-.937.172v4.66c0 .327.277.586.6.545.364-.047.722-.112 1.074-.195a.75.75 0 00.577-.706c.02-.615.448-1.225 1.134-1.623A8.25 8.25 0 0012 .75z" 
    /><path fill-rule="evenodd" d="M9.013 19.9a.75.75 0 01.877-.597 11.319 11.319 0 004.22 0 .75.75 0 11.28 1.473 12.819 12.819 0 01-4.78 0 .75.75 0 01-.597-.876zM9.754 22.344a.75.75 0 01.824-.668 13.682 13.682 0 002.844 0 .75.75 0 11.156 1.492 15.156 15.156 0 01-3.156 0 .75.75 0 01-.668-.824z" clip-rule="evenodd"/></symbol>
    <symbol id="star" viewBox="0 0 24 24" fill="currentColor"><path fill-rule="evenodd" d="M10.788 3.21c.448-1.077 1.976-1.077 2.424 0l2.082 5.007 5.404.433c1.164.093 1.636 1.545.749 2.305l-4.117 3.527 1.257 5.273c.271 1.136-.964 2.033-1.96 1.425L12 18.354 7.373 21.18c-.996.608-2.231-.29-1.96-1.425l1.257-5.273-4.117-3.527c-.887-.76-.415-2.212.749-2.305l5.404-.433 2.082-5.006z" clip-rule="evenodd"/></symbol>
    <symbol id="arrow-right" fill="none" viewBox="0 0 24 24" stroke-width="1.5" stroke="currentColor"><path stroke-linecap="round" stroke-linejoin="round" d="M17.25 8.25L21 12m0 0l-3.75 3.75M21 12H3"/></symbol>
    <symbol id="share" viewBox="0 0 20 20" fill="currentColor"><path d="M12.232 4.232a2.5 2.5 0 013.536 3.536l-1.225 1.224a.75.75 0 001.061 1.06l1.224-1.224a4 4 0 00-5.656-5.656l-3 3a4 4 0 00.225 5.865.75.75 0 00.977-1.138 2.5 2.5 0 01-.142-3.667l3-3z" /><path d="M11.603 7.963a.75.75 0 00-.977 1.138 2.5 2.5 0 01.142 3.667l-3 3a2.5 2.5 0 01-3.536-3.536l1.225-1.224a.75.75 0 00-1.061-1.06l-1.224 1.224a4 4 0 105.656 5.656l3-3a4 4 0 00-.225-5.865z" /></symbol>
<!--    <symbol id="moon" viewBox="0 0 24 24" fill="currentColor"><path fill-rule="evenodd" d="M9.528 1.718a.75.75 0 01.162.819A8.97 8.97 0 009 6a9 9 0 009 9 8.97 8.97 0 003.463-.69.75.75 0 01.981.98 10.503 10.503 0 01-9.694 6.46c-5.799 0-10.5-4.701-10.5-10.5 0-4.368 2.667-8.112 6.46-9.694a.75.75 0 01.818.162z" clip-rule="evenodd"/></symbol>-->
<!--    <symbol id="sun" viewBox="0 0 24 24" fill="currentColor"><path d="M12 2.25a.75.75 0 01.75.75v2.25a.75.75 0 01-1.5 0V3a.75.75 0 01.75-.75zM7.5 12a4.5 4.5 0 119 0 4.5 4.5 0 01-9 0zM18.894 6.166a.75.75 0 00-1.06-1.06l-1.591 1.59a.75.75 0 101.06 1.061l1.591-1.59zM21.75 12a.75.75 0 01-.75.75h-2.25a.75.75 0 010-1.5H21a.75.75 0 01.75.75zM17.834 18.894a.75.75 0 001.06-1.06l-1.59-1.591a.75.75 0 10-1.061 1.06l1.59 1.591zM12 18a.75.75 0 01.75.75V21a.75.75 0 01-1.5 0v-2.25A.75.75 0 0112 18zM7.758 17.303a.75.75 0 00-1.061-1.06l-1.591 1.59a.75.75 0 001.06 1.061l1.591-1.59zM6 12a.75.75 0 01-.75.75H3a.75.75 0 010-1.5h2.25A.75.75 0 016 12zM6.697 7.757a.75.75 0 001.06-1.06l-1.59-1.591a.75.75 0 00-1.061 1.06l1.59 1.591z"/></symbol>-->
<!--    <symbol id="computer" viewBox="0 0 20 20" fill="currentColor"><path fill-rule="evenodd" d="M2 4.25A2.25 2.25 0 014.25 2h11.5A2.25 2.25 0 0118 4.25v8.5A2.25 2.25 0 0115.75 15h-3.105a3.501 3.501 0 001.1 1.677A.75.75 0 0113.26 18H6.74a.75.75 0 01-.484-1.323A3.501 3.501 0 007.355 15H4.25A2.25 2.25 0 012 12.75v-8.5zm1.5 0a.75.75 0 01.75-.75h11.5a.75.75 0 01.75.75v7.5a.75.75 0 01-.75.75H4.25a.75.75 0 01-.75-.75v-7.5z" clip-rule="evenodd"/></symbol>-->
    <symbol id="refresh" viewBox="0 0 20 20" fill="currentColor"><path fill-rule="evenodd" d="M15.312 11.424a5.5 5.5 0 01-9.201 2.466l-.312-.311h2.433a.75.75 0 000-1.5H3.989a.75.75 0 00-.75.75v4.242a.75.75 0 001.5 0v-2.43l.31.31a7 7 0 0011.712-3.138.75.75 0 00-1.449-.39zm1.23-3.723a.75.75 0 00.219-.53V2.929a.75.75 0 00-1.5 0V5.36l-.31-.31A7 7 0 003.239 8.188a.75.75 0 101.448.389A5.5 5.5 0 0113.89 6.11l.311.31h-2.432a.75.75 0 000 1.5h4.243a.75.75 0 00.53-.219z" clip-rule="evenodd" /></symbol>
    <symbol id="export" viewBox="0 0 20 20" fill="currentColor"><path fill-rule="evenodd" d="M4.25 5.5a.75.75 0 00-.75.75v8.5c0 .414.336.75.75.75h8.5a.75.75 0 00.75-.75v-4a.75.75 0 011.5 0v4A2.25 2.25 0 0112.75 17h-8.5A2.25 2.25 0 012 14.75v-8.5A2.25 2.25 0 014.25 4h5a.75.75 0 010 1.5h-5z" clip-rule="evenodd" /><path fill-rule="evenodd" d="M6.194 12.753a.75.75 0 001.06.053L16.5 4.44v2.81a.75.75 0 001.5 0v-4.5a.75.75 0 00-.75-.75h-4.5a.75.75 0 000 1.5h2.553l-9.056 8.194a.75.75 0 00-.053 1.06z" clip-rule="evenodd" /></symbol>
    <symbol id="backward" viewBox="0 0 20 20" fill="currentColor"><path d="M7.712 4.819A1.5 1.5 0 0110 6.095v2.973c.104-.131.234-.248.389-.344l6.323-3.905A1.5 1.5 0 0119 6.095v7.81a1.5 1.5 0 01-2.288 1.277l-6.323-3.905a1.505 1.505 0 01-.389-.344v2.973a1.5 1.5 0 01-2.288 1.276l-6.323-3.905a1.5 1.5 0 010-2.553L7.712 4.82z" /></symbol>
    <symbol id="download" viewBox="0 0 20 20" fill="currentColor"><path d="M10.75 2.75a.75.75 0 00-1.5 0v8.614L6.295 8.235a.75.75 0 10-1.09 1.03l4.25 4.5a.75.75 0 001.09 0l4.25-4.5a.75.75 0 00-1.09-1.03l-2.955 3.129V2.75z" /><path d="M3.5 12.75a.75.75 0 00-1.5 0v2.5A2.75 2.75 0 004.75 18h10.5A2.75 2.75 0 0018 15.25v-2.5a.75.75 0 00-1.5 0v2.5c0 .69-.56 1.25-1.25 1.25H4.75c-.69 0-1.25-.56-1.25-1.25v-2.5z" /></symbol>
    <symbol id="grid" viewBox="0 0 20 20" fill="currentColor"><path fill-rule="evenodd" d="M4.25 2A2.25 2.25 0 002 4.25v2.5A2.25 2.25 0 004.25 9h2.5A2.25 2.25 0 009 6.75v-2.5A2.25 2.25 0 006.75 2h-2.5zm0 9A2.25 2.25 0 002 13.25v2.5A2.25 2.25 0 004.25 18h2.5A2.25 2.25 0 009 15.75v-2.5A2.25 2.25 0 006.75 11h-2.5zm9-9A2.25 2.25 0 0011 4.25v2.5A2.25 2.25 0 0013.25 9h2.5A2.25 2.25 0 0018 6.75v-2.5A2.25 2.25 0 0015.75 2h-2.5zm0 9A2.25 2.25 0 0011 13.25v2.5A2.25 2.25 0 0013.25 18h2.5A2.25 2.25 0 0018 15.75v-2.5A2.25 2.25 0 0015.75 11h-2.5z" clip-rule="evenodd" /></symbol>
    <symbol id="list" viewBox="0 0 20 20" fill="currentColor"><path fill-rule="evenodd" d="M2 4.75A.75.75 0 012.75 4h14.5a.75.75 0 010 1.5H2.75A.75.75 0 012 4.75zM2 10a.75.75 0 01.75-.75h14.5a.75.75 0 010 1.5H2.75A.75.75 0 012 10zm0 5.25a.75.75 0 01.75-.75h14.5a.75.75 0 010 1.5H2.75a.75.75 0 01-.75-.75z" clip-rule="evenodd" /></symbol>
    <symbol id="masonry" viewBox="0 0 20 20" fill="currentColor"><path fill-rule="evenodd" d="M2.5 3A1.5 1.5 0 001 4.5v4A1.5 1.5 0 002.5 10h6A1.5 1.5 0 0010 8.5v-4A1.5 1.5 0 008.5 3h-6zm11 2A1.5 1.5 0 0012 6.5v7a1.5 1.5 0 001.5 1.5h4a1.5 1.5 0 001.5-1.5v-7A1.5 1.5 0 0017.5 5h-4zm-10 7A1.5 1.5 0 002 13.5v2A1.5 1.5 0 003.5 17h6a1.5 1.5 0 001.5-1.5v-2A1.5 1.5 0 009.5 12h-6z" clip-rule="evenodd" /></symbol>
    <symbol id="github" viewBox="0 0 24 24" fill="currentColor"><path d="M12 0c-6.626 0-12 5.373-12 12 0 5.302 3.438 9.8 8.207 11.387.599.111.793-.261.793-.577v-2.234c-3.338.726-4.033-1.416-4.033-1.416-.546-1.387-1.333-1.756-1.333-1.756-1.089-.745.083-.729.083-.729 1.205.084 1.839 1.237 1.839 1.237 1.07 1.834 2.807 1.304 3.492.997.107-.775.418-1.305.762-1.604-2.665-.305-5.467-1.334-5.467-5.931 0-1.311.469-2.381 1.236-3.221-.124-.303-.535-1.524.117-3.176 0 0 1.008-.322 3.301 1.23.957-.266 1.983-.399 3.003-.404 1.02.005 2.047.138 3.006.404 2.291-1.552 3.297-1.23 3.297-1.23.653 1.653.242 2.874.118 3.176.77.84 1.235 1.911 1.235 3.221 0 4.609-2.807 5.624-5.479 5.921.43.372.823 1.102.823 2.222v3.293c0 .319.192.694.801.576 4.765-1.589 8.199-6.086 8.199-11.386 0-6.627-5.373-12-12-12z"/></symbol>
    <symbol id="notion" viewBox="0 0 32 32" fill="currentColor"><g id="SVGRepo_bgCarrier" stroke-width="0"></g><g id="SVGRepo_tracerCarrier" stroke-linecap="round" stroke-linejoin="round"></g><g id="SVGRepo_iconCarrier"><path fill-rule="evenodd" clip-rule="evenodd" d="M5.716 29.2178L2.27664 24.9331C1.44913 23.9023 1 22.6346 1 21.3299V5.81499C1 3.86064 2.56359 2.23897 4.58071 2.10125L20.5321 1.01218C21.691 0.933062 22.8428 1.24109 23.7948 1.8847L29.3992 5.67391C30.4025 6.35219 31 7.46099 31 8.64426V26.2832C31 28.1958 29.4626 29.7793 27.4876 29.9009L9.78333 30.9907C8.20733 31.0877 6.68399 30.4237 5.716 29.2178Z" fill="transparent"></path> <path class="line" d="M11.2481 13.5787V13.3756C11.2481 12.8607 11.6605 12.4337 12.192 12.3982L16.0633 12.1397L21.417 20.0235V13.1041L20.039 12.9204V12.824C20.039 12.303 20.4608 11.8732 20.9991 11.8456L24.5216 11.6652V12.1721C24.5216 12.41 24.3446 12.6136 24.1021 12.6546L23.2544 12.798V24.0037L22.1906 24.3695C21.3018 24.6752 20.3124 24.348 19.8036 23.5803L14.6061 15.7372V23.223L16.2058 23.5291L16.1836 23.6775C16.1137 24.1423 15.7124 24.4939 15.227 24.5155L11.2481 24.6926C11.1955 24.1927 11.5701 23.7456 12.0869 23.6913L12.6103 23.6363V13.6552L11.2481 13.5787Z" fill="currentColor"></path> <path class="line" fill-rule="evenodd" clip-rule="evenodd" d="M20.6749 2.96678L4.72347 4.05585C3.76799 4.12109 3.02734 4.88925 3.02734 5.81499V21.3299C3.02734 22.1997 3.32676 23.0448 3.87843 23.7321L7.3178 28.0167C7.87388 28.7094 8.74899 29.0909 9.65435 29.0352L27.3586 27.9454C28.266 27.8895 28.9724 27.1619 28.9724 26.2832V8.64426C28.9724 8.10059 28.6979 7.59115 28.2369 7.27951L22.6325 3.49029C22.0613 3.10413 21.3702 2.91931 20.6749 2.96678ZM5.51447 6.057C5.29261 5.89274 5.3982 5.55055 5.6769 5.53056L20.7822 4.44711C21.2635 4.41259 21.7417 4.54512 22.1309 4.82088L25.1617 6.96813C25.2767 7.04965 25.2228 7.22563 25.0803 7.23338L9.08387 8.10336C8.59977 8.12969 8.12193 7.98747 7.73701 7.7025L5.51447 6.057ZM8.33357 10.8307C8.33357 10.311 8.75341 9.88177 9.29027 9.85253L26.203 8.93145C26.7263 8.90296 27.1667 9.30534 27.1667 9.81182V25.0853C27.1667 25.604 26.7484 26.0328 26.2126 26.0633L9.40688 27.0195C8.8246 27.0527 8.33357 26.6052 8.33357 26.0415V10.8307Z" fill="currentColor"></path> </g></symbol>
    <symbol id="email" viewBox="0 0 24 24" fill="currentColor"><path d="M20 4H4c-1.1 0-1.99.9-1.99 2L2 18c0 1.1.9 2 2 2h16c1.1 0 2-.9 2-2V6c0-1.1-.9-2-2-2zm0 4-8 5-8-5V6l8 5 8-5v2z"></path></symbol>
    <symbol id="left" viewBox="-4 -2 24 24" fill="currentColor"><g id="Page-1" stroke="none" stroke-width="1" fill="none" fill-rule="evenodd"><g id="Dribbble-Light-Preview" transform="translate(-345.000000, -6679.000000)" fill="currentColor"><g id="icons" transform="translate(56.000000, 160.000000)"><path d="M299.633777,6519.29231 L299.633777,6519.29231 C299.228878,6518.90256 298.573377,6518.90256 298.169513,6519.29231 L289.606572,6527.55587 C288.797809,6528.33636 288.797809,6529.60253 289.606572,6530.38301 L298.231646,6538.70754 C298.632403,6539.09329 299.27962,6539.09828 299.685554,6538.71753 L299.685554,6538.71753 C300.100809,6538.32879 300.104951,6537.68821 299.696945,6537.29347 L291.802968,6529.67648 C291.398069,6529.28574 291.398069,6528.65315 291.802968,6528.26241 L299.633777,6520.70538 C300.038676,6520.31563 300.038676,6519.68305 299.633777,6519.29231" id="arrow_left-[#335]"/></g></g></g></symbol>
    <symbol id="leftDouble" viewBox="0 0 24 24" fill="transparent"><g transform="translate(24, 0) scale(-1, 1)"><path d="M5.5 5L11.7929 11.2929C12.1834 11.6834 12.1834 12.3166 11.7929 12.7071L5.5 19" stroke="currentColor" stroke-width="2" stroke-linecap="round" stroke-linejoin="round"/><path d="M13.5 5L19.7929 11.2929C20.1834 11.6834 20.1834 12.3166 19.7929 12.7071L13.5 19" stroke="currentColor" stroke-width="2" stroke-linecap="round" stroke-linejoin="round"/></g></symbol>
    <symbol id="right" viewBox="-4.5 0 20 20" fill="currentColor"><g id="Page-1" stroke="none" stroke-width="1" fill="none" fill-rule="evenodd"><g transform="translate(-305.000000, -6679.000000)" fill="currentColor"><g id="icons" transform="translate(56.000000, 160.000000)"><path d="M249.365851,6538.70769 L249.365851,6538.70769 C249.770764,6539.09744 250.426289,6539.09744 250.830166,6538.70769 L259.393407,6530.44413 C260.202198,6529.66364 260.202198,6528.39747 259.393407,6527.61699 L250.768031,6519.29246 C250.367261,6518.90671 249.720021,6518.90172 249.314072,6519.28247 L249.314072,6519.28247 C248.899839,6519.67121 248.894661,6520.31179 249.302681,6520.70653 L257.196934,6528.32352 C257.601847,6528.71426 257.601847,6529.34685 257.196934,6529.73759 L249.365851,6537.29462 C248.960938,6537.68437 248.960938,6538.31795 249.365851,6538.70769" id="arrow_right-[#336]"/></g></g></g></symbol>
    <symbol id="rightDouble" viewBox="0 0 24 24" fill="transparent"> <path d="M5.5 5L11.7929 11.2929C12.1834 11.6834 12.1834 12.3166 11.7929 12.7071L5.5 19" stroke="currentColor" stroke-width="2" stroke-linecap="round" stroke-linejoin="round"/><path d="M13.5 5L19.7929 11.2929C20.1834 11.6834 20.1834 12.3166 19.7929 12.7071L13.5 19" stroke="currentColor" stroke-width="2" stroke-linecap="round" stroke-linejoin="round"/></symbol>
    <symbol id="life" viewBox="0 0 1024 1024" fill="#000000"><g id="SVGRepo_bgCarrier" stroke-width="0"></g><g id="SVGRepo_tracerCarrier" stroke-linecap="round" stroke-linejoin="round"></g><g id="SVGRepo_iconCarrier"><path d="M373.1 670.6L188.8 178.5c-7.8-20.7 2.7-43.7 23.4-51.5 20.7-7.8 43.7 2.7 51.5 23.4l172.4 460.2 351.3-71c21.7-4.4 42.8 9.6 47.1 31.3 4.4 21.7-9.6 42.8-31.3 47.1l-384.7 77.8c-19.2 3.9-38.5-6.8-45.4-25.2z" fill="#FF4C22"></path><path d="M336.5 729.6L105 124c-3.9-10.3 1.2-21.9 11.5-25.8 10.3-3.9 21.9 1.2 25.8 11.5l231.6 605.6c3.9 10.3-1.2 21.9-11.5 25.8-10.3 4-21.9-1.2-25.9-11.5z" fill="#93643D"></path><path d="M201.8 793.5l16.5-43.9 658.4-127c10.8-2.1 21.3 5 23.4 15.8 2.1 10.8-5 21.3-15.8 23.4L201.8 793.5z" fill="#93643D"></path><path d="M128 927.8c-9.7-6.3-13.4-21.1-8.2-32.9L282 480.3l422.1-9.3c7.3 0 14 4.8 17.5 12.6L904 886.7c5.3 11.7 1.8 26.5-7.9 33-9.7 6.5-21.8 2.2-27.2-9.6L692.3 519.5l-390.5 7.2-146.7 391.2c-5.2 11.8-17.3 16.2-27.1 9.9z" fill="#93643D"></path></g></symbol>
    <symbol id="shovel" viewBox="0 0 512 512" xml:space="preserve" fill="#000000"><g id="SVGRepo_bgCarrier" stroke-width="0"></g><g id="SVGRepo_tracerCarrier" stroke-linecap="round" stroke-linejoin="round"></g><g id="SVGRepo_iconCarrier"> <path style="fill:#E5E5E5;" d="M205.723,378.62l-77.008-14.439c-6.446-1.208-11.49-6.251-12.698-12.698l-14.439-77.008 c-0.967-5.159,0.673-10.463,4.384-14.174l69.026-69.026c12.419-12.419,32.555-12.419,44.973,0l68.96,68.96 c12.419,12.419,12.419,32.555,0,44.973l-69.026,69.026C216.186,377.947,210.881,379.588,205.723,378.62z"></path> <path style="fill:#CCCCCC;" d="M136.187,344.012l-13.256-70.695l67.05-67.049c2.701-2.701,5.855-3.105,7.495-3.105 s4.794,0.404,7.494,3.105l68.961,68.961c4.133,4.132,4.132,10.857,0,14.991l-67.049,67.049L136.187,344.012z"></path> <rect x="346.687" y="51.883" transform="matrix(-0.7071 -0.7071 0.7071 -0.7071 661.2138 405.2105)" style="fill:#EB6836;" width="135.684" height="27.561"></rect> <rect x="417.172" y="64.859" transform="matrix(-0.7071 0.7071 -0.7071 -0.7071 793.7339 -164.5774)" style="fill:#FD9D7E;" width="27.561" height="34.48"></rect> <rect x="366.3" y="12.1" transform="matrix(-0.7071 0.7071 -0.7071 -0.7071 670.9119 -215.4645)" style="fill:#C74B38;" width="27.561" height="38.235"></rect> <path style="fill:#CCCCCC;" d="M357.566,103.144l19.489,19.489L204.972,294.716c-5.382,5.382-14.107,5.382-19.489,0l0,0 c-5.382-5.382-5.382-14.107,0-19.489L357.566,103.144z"></path> <path style="fill:#E2771E;" d="M74.742,448.927c30.443,0,55.122,24.679,55.122,55.122H19.62 C19.62,473.606,44.299,448.927,74.742,448.927z"></path> <path style="fill:#EF9D3C;" d="M92.233,451.777c-5.497-1.839-11.374-2.849-17.491-2.849c-30.443,0-55.122,24.679-55.122,55.122 h34.981C54.602,479.723,70.368,459.091,92.233,451.777z"></path> <path style="fill:#E2771E;" d="M176.506,406.525c53.861,0,97.524,43.663,97.524,97.524H78.982 C78.982,450.188,122.646,406.525,176.506,406.525z"></path> <g> <path style="fill:#EF9D3C;" d="M213.078,413.622c-11.295-4.572-23.637-7.096-36.571-7.096c-53.861,0-97.524,43.663-97.524,97.524 h73.143C152.125,463.123,177.339,428.09,213.078,413.622z"></path> <path style="fill:#EF9D3C;" d="M342.933,355.997c82.075,0,148.688,66.157,149.448,148.053H193.485 C194.245,422.154,260.858,355.997,342.933,355.997z"></path> </g> <g> <circle style="fill:#E2771E;" cx="345.309" cy="461.648" r="21.201"></circle> <circle style="fill:#E2771E;" cx="416.597" cy="460.058" r="21.201"></circle> <circle style="fill:#E2771E;" cx="274.022" cy="460.588" r="21.201"></circle> <circle style="fill:#E2771E;" cx="379.231" cy="406.526" r="21.201"></circle> <circle style="fill:#E2771E;" cx="307.943" cy="405.466" r="21.201"></circle> </g> <path d="M108.204,352.949c1.828,9.742,9.303,17.218,19.047,19.046l77.008,14.44c7.676,1.436,15.74-1.057,21.261-6.578l69.026-69.027 c15.498-15.499,15.498-40.717,0-56.216l-19.114-19.114l58.275-58.275c3.105-3.106,3.105-8.139,0-11.244 c-3.106-3.104-8.139-3.104-11.244,0L199.349,289.093c-2.274,2.274-5.971,2.274-8.244,0c-2.273-2.274-2.274-5.972,0-8.244 l166.46-166.461l8.245,8.245l-19.621,19.62c-3.105,3.106-3.105,8.139,0,11.244c3.106,3.104,8.139,3.104,11.244,0l24.133-24.133 l53.686-12.245l11.885,11.885c3.064,3.062,8.18,3.062,11.244,0l19.489-19.489c3.105-3.106,3.105-8.139,0-11.244L381.925,2.328 c-3.106-3.104-8.139-3.104-11.244,0l-19.489,19.489c-3.105,3.106-3.105,8.139,0,11.244l11.886,11.885l-12.245,53.686 L244.698,204.767l-19.114-19.114c-15.499-15.497-40.716-15.498-56.217,0l-69.026,69.026c-5.569,5.571-8.028,13.519-6.576,21.261 L108.204,352.949z M376.305,19.193l84.701,84.7l-8.245,8.245l-84.701-84.7L376.305,19.193z M421.973,103.84l-42.724,9.744 l-12.634-12.634l9.744-42.724L421.973,103.84z M111.585,265.924l69.025-69.026c9.302-9.3,24.434-9.298,33.729,0l19.114,19.114 l-53.594,53.594c-8.472,8.473-8.472,22.26,0,30.733c4.237,4.236,9.801,6.354,15.366,6.354s11.129-2.118,15.366-6.354l53.594-53.594 l19.114,19.114c9.299,9.298,9.299,24.43,0,33.728l-69.026,69.026c-1.856,1.858-4.505,2.676-7.087,2.193l-77.008-14.439 c-3.248-0.61-5.74-3.102-6.35-6.349l-14.438-77.008C108.909,270.43,109.728,267.78,111.585,265.924z"></path> <path d="M464.719,405.727c-2.783-3.395-7.793-3.889-11.189-1.109c-3.395,2.784-3.891,7.793-1.108,11.19 c18.645,22.746,29.75,50.992,31.703,80.292H201.736c4.856-73.573,66.585-132.152,141.196-132.152 c29.738,0,58.192,9.12,82.285,26.372c3.567,2.556,8.537,1.737,11.092-1.835c2.557-3.569,1.735-8.537-1.835-11.092 c-26.807-19.197-58.462-29.345-91.541-29.345c-41.788,0-81.142,16.202-110.815,45.62c-4.506,4.468-8.705,9.164-12.595,14.058 c-13.555-6.07-28.013-9.149-43.016-9.149c-35.42,0-66.819,17.551-85.956,44.413c-5.143-1.328-10.445-2.011-15.809-2.011 c-34.779,0-63.072,28.294-63.072,63.072c0,4.392,3.559,7.95,7.95,7.95H492.38c4.357,0,7.991-3.667,7.95-8.023 C499.998,468.229,487.353,433.336,464.719,405.727z M176.506,414.476c11.657,0,22.919,2.187,33.557,6.497 c-14.315,22.424-22.686,48.132-24.262,75.126H87.305C91.345,450.42,129.797,414.476,176.506,414.476z M74.742,456.878 c2.416,0,4.813,0.182,7.175,0.543c-5.85,11.819-9.554,24.881-10.588,38.679H28.24C32.03,473.86,51.44,456.878,74.742,456.878z"></path> </g></symbol>
    <symbol id="clock" viewBox="0 0 24 24" fill="none"><g id="SVGRepo_bgCarrier" stroke-width="0"></g><g id="SVGRepo_tracurrentColorerCarrier" stroke-linecurrentcap="round" stroke-linejoin="round"></g><g id="SVGRepo_icurrentColoronCarrier"> <path d="M5.06152 12C5.55362 8.05369 8.92001 5 12.9996 5C17.4179 5 20.9996 8.58172 20.9996 13C20.9996 17.4183 17.4179 21 12.9996 21H8M13 13V9M11 3H15M3 15H8M5 18H10" stroke="currentColor" stroke-width="2" stroke-linecurrentcap="round" stroke-linejoin="round"></path> </g></symbol>
    <symbol id="sun" viewBox="0 0 24 24" fill="none"  stroke="#ffdd00"><g id="SVGRepo_bgCarrier" stroke-width="0"></g><g id="SVGRepo_tracerCarrier" stroke-linecap="round" stroke-linejoin="round"></g><g id="SVGRepo_iconCarrier"> <path fill-rule="evenodd" clip-rule="evenodd" d="M7.25 22C7.25 21.5858 7.58579 21.25 8 21.25H16C16.4142 21.25 16.75 21.5858 16.75 22C16.75 22.4142 16.4142 22.75 16 22.75H8C7.58579 22.75 7.25 22.4142 7.25 22Z" fill="#ffea00"></path> <path fill-rule="evenodd" clip-rule="evenodd" d="M12 1.25C12.4142 1.25 12.75 1.58579 12.75 2V3C12.75 3.41421 12.4142 3.75 12 3.75C11.5858 3.75 11.25 3.41421 11.25 3V2C11.25 1.58579 11.5858 1.25 12 1.25ZM1.25 12C1.25 11.5858 1.58579 11.25 2 11.25H3C3.41421 11.25 3.75 11.5858 3.75 12C3.75 12.4142 3.41421 12.75 3 12.75H2C1.58579 12.75 1.25 12.4142 1.25 12ZM20.25 12C20.25 11.5858 20.5858 11.25 21 11.25H22C22.4142 11.25 22.75 11.5858 22.75 12C22.75 12.4142 22.4142 12.75 22 12.75H21C20.5858 12.75 20.25 12.4142 20.25 12Z" fill="#ffea00"></path> <path fill-rule="evenodd" clip-rule="evenodd" d="M6.08267 15.25H2C1.58579 15.25 1.25 15.5858 1.25 16C1.25 16.4142 1.58579 16.75 2 16.75H22C22.4142 16.75 22.75 16.4142 22.75 16C22.75 15.5858 22.4142 15.25 22 15.25H17.9173H6.08267Z" fill="#ffea00"></path> <path opacity="0.5" d="M4.25 19C4.25 18.5858 4.58579 18.25 5 18.25H19C19.4142 18.25 19.75 18.5858 19.75 19C19.75 19.4142 19.4142 19.75 19 19.75H5C4.58579 19.75 4.25 19.4142 4.25 19Z" fill="#ffea00"></path> <g opacity="0.5"> <path d="M4.39838 4.39838C4.69127 4.10549 5.16615 4.10549 5.45904 4.39838L5.85188 4.79122C6.14477 5.08411 6.14477 5.55898 5.85188 5.85188C5.55898 6.14477 5.08411 6.14477 4.79122 5.85188L4.39838 5.45904C4.10549 5.16615 4.10549 4.69127 4.39838 4.39838Z" fill="#ffea00"></path> <path d="M19.6009 4.39864C19.8938 4.69153 19.8938 5.16641 19.6009 5.4593L19.2081 5.85214C18.9152 6.14503 18.4403 6.14503 18.1474 5.85214C17.8545 5.55924 17.8545 5.08437 18.1474 4.79148L18.5402 4.39864C18.8331 4.10575 19.308 4.10575 19.6009 4.39864Z" fill="#ffea00"></path> </g> <path opacity="0.5" d="M5.25 12C5.25 13.1778 5.5521 14.2858 6.08267 15.25H17.9173C18.4479 14.2858 18.75 13.1778 18.75 12C18.75 8.27208 15.7279 5.25 12 5.25C8.27208 5.25 5.25 8.27208 5.25 12Z" fill="#ffea00"></path> </g></symbol>
    <symbol id="moon" viewBox="0 0 24 24" fill="none"><g id="SVGRepo_bgCarrier" stroke-width="0"></g><g id="SVGRepo_tracerCarrier" stroke-linecap="round" stroke-linejoin="round"></g><g id="SVGRepo_iconCarrier"> <path d="M19.9001 2.30719C19.7392 1.8976 19.1616 1.8976 19.0007 2.30719L18.5703 3.40247C18.5212 3.52752 18.4226 3.62651 18.298 3.67583L17.2067 4.1078C16.7986 4.26934 16.7986 4.849 17.2067 5.01054L18.298 5.44252C18.4226 5.49184 18.5212 5.59082 18.5703 5.71587L19.0007 6.81115C19.1616 7.22074 19.7392 7.22074 19.9001 6.81116L20.3305 5.71587C20.3796 5.59082 20.4782 5.49184 20.6028 5.44252L21.6941 5.01054C22.1022 4.849 22.1022 4.26934 21.6941 4.1078L20.6028 3.67583C20.4782 3.62651 20.3796 3.52752 20.3305 3.40247L19.9001 2.30719Z" fill="#becdfe"></path> <path d="M16.0328 8.12967C15.8718 7.72009 15.2943 7.72009 15.1333 8.12967L14.9764 8.52902C14.9273 8.65407 14.8287 8.75305 14.7041 8.80237L14.3062 8.95987C13.8981 9.12141 13.8981 9.70107 14.3062 9.86261L14.7041 10.0201C14.8287 10.0694 14.9273 10.1684 14.9764 10.2935L15.1333 10.6928C15.2943 11.1024 15.8718 11.1024 16.0328 10.6928L16.1897 10.2935C16.2388 10.1684 16.3374 10.0694 16.462 10.0201L16.8599 9.86261C17.268 9.70107 17.268 9.12141 16.8599 8.95987L16.462 8.80237C16.3374 8.75305 16.2388 8.65407 16.1897 8.52902L16.0328 8.12967Z" fill="#becdfe"></path> <path d="M12 22C17.5228 22 22 17.5228 22 12C22 11.5373 21.3065 11.4608 21.0672 11.8568C19.9289 13.7406 17.8615 15 15.5 15C11.9101 15 9 12.0899 9 8.5C9 6.13845 10.2594 4.07105 12.1432 2.93276C12.5392 2.69347 12.4627 2 12 2C6.47715 2 2 6.47715 2 12C2 17.5228 6.47715 22 12 22Z" fill="#becdfe"></path> </g></symbol>
    <symbol id="system" fill="currentColor" viewBox="0 0 92 92" enable-background="new 0 0 92 92" xml:space="preserve"><g id="SVGRepo_bgCarrier" stroke-width="0"></g><g id="SVGRepo_tracerCarrier" stroke-linecap="round" stroke-linejoin="round"></g><g id="SVGRepo_iconCarrier"> <path id="XMLID_1719_" d="M92,13c0-2.2-1.8-4-4-4H4c-2.2,0-4,1.8-4,4v52c0,2.2,1.8,4,4,4h84c2.2,0,4-1.8,4-4V13z M84,61H8V17h76V61z M69.5,79c0,2.2-1.8,4-4,4H26.5c-2.2,0-4-1.8-4-4s1.8-4,4-4h38.9C67.7,75,69.5,76.8,69.5,79z"></path> </g></symbol>
  </defs>
</svg>